<svg width="272" height="56" viewBox="0 0 272 56" fill="none" xmlns="http://www.w3.org/2000/svg">
<g clip-path="url(#clip0_1_3)">
<path d="M2.21 12.75L24.82 1.08C25.4573 0.749974 26.174 0.579425 26.9013 0.584678C27.6287 0.589931 28.3425 0.770809 28.9744 1.11L51 12.96C51.647 13.3116 52.1841 13.8175 52.5572 14.4267C52.9302 15.0359 53.1261 15.7269 53.125 16.43V39.97C53.1254 40.6842 52.9226 41.3854 52.5377 42.0009C52.1528 42.6164 51.5998 43.1236 50.9362 43.47L28.9425 54.94C28.3188 55.2652 27.6182 55.4374 26.9052 55.4409C26.1922 55.4444 25.4898 55.279 24.8625 54.96L2.23125 43.46C1.55658 43.1172 0.992982 42.6091 0.600177 41.9894C0.207372 41.3697 -1.089e-05 40.6616 4.28902e-10 39.94L4.28902e-10 16.26C0.00172725 15.5438 0.207719 14.8412 0.596466 14.2256C0.985212 13.6099 1.54245 13.1038 2.21 12.76V12.75Z" fill="url(#paint0_linear_1_3)"/>
<path d="M43.8784 37.2323C41.6699 40.9107 32.127 39.7143 22.5637 34.5602C13.0004 29.4061 7.03816 22.246 9.24663 18.5677C11.4551 14.8893 20.998 16.0857 30.5613 21.2398C40.1246 26.3939 46.0868 33.554 43.8784 37.2323Z" stroke="white" stroke-width="1.5"/>
<path d="M43.8784 18.4677C41.6699 14.7893 32.127 15.9857 22.5637 21.1398C13.0004 26.2939 7.03816 33.454 9.24663 37.1323C11.4551 40.8107 20.998 39.6143 30.5613 34.4602C40.1246 29.3061 46.0868 22.146 43.8784 18.4677Z" stroke="white" stroke-width="1.5"/>
<path d="M26.6369 8.98C22.1713 8.98 18.5513 17.4284 18.5513 27.85C18.5513 38.2716 22.1713 46.72 26.6369 46.72C31.1024 46.72 34.7225 38.2716 34.7225 27.85C34.7225 17.4284 31.1024 8.98 26.6369 8.98Z" stroke="white" stroke-width="1.5"/>
<path d="M29.7925 27.72C29.7925 26.03 28.3464 24.66 26.5625 24.66C24.7786 24.66 23.3325 26.03 23.3325 27.72C23.3325 29.41 24.7786 30.78 26.5625 30.78C28.3464 30.78 29.7925 29.41 29.7925 27.72Z" fill="white"/>
<path d="M68.8523 23.5881V20.5455H83.1875V23.5881H77.8438V38H74.196V23.5881H68.8523ZM89.5476 38.2557C88.201 38.2557 87.0419 37.983 86.0703 37.4375C85.1044 36.8864 84.3601 36.108 83.8374 35.1023C83.3146 34.0909 83.0533 32.8949 83.0533 31.5142C83.0533 30.1676 83.3146 28.9858 83.8374 27.9688C84.3601 26.9517 85.0959 26.1591 86.0447 25.5909C86.9993 25.0227 88.1186 24.7386 89.4027 24.7386C90.2663 24.7386 91.0703 24.8778 91.8146 25.1562C92.5646 25.429 93.218 25.8409 93.7749 26.392C94.3374 26.9432 94.7749 27.6364 95.0874 28.4716C95.3999 29.3011 95.5561 30.2727 95.5561 31.3864V32.3835H84.5021V30.1335H92.1385C92.1385 29.6108 92.0249 29.1477 91.7976 28.7443C91.5703 28.3409 91.255 28.0256 90.8516 27.7983C90.4538 27.5653 89.9908 27.4489 89.4624 27.4489C88.9112 27.4489 88.4226 27.5767 87.9964 27.8324C87.576 28.0824 87.2464 28.4205 87.0078 28.8466C86.7692 29.267 86.647 29.7358 86.6413 30.2528V32.392C86.6413 33.0398 86.7607 33.5994 86.9993 34.071C87.2436 34.5426 87.5874 34.9062 88.0305 35.1619C88.4737 35.4176 88.9993 35.5455 89.6072 35.5455C90.0107 35.5455 90.38 35.4886 90.7152 35.375C91.0504 35.2614 91.3374 35.0909 91.576 34.8636C91.8146 34.6364 91.9964 34.358 92.1214 34.0284L95.4794 34.25C95.3089 35.0568 94.9595 35.7614 94.4311 36.3636C93.9084 36.9602 93.2322 37.4261 92.4027 37.7614C91.5788 38.0909 90.6271 38.2557 89.5476 38.2557ZM97.9254 38V24.9091H101.386V27.2188H101.539C101.812 26.4517 102.266 25.8466 102.903 25.4034C103.539 24.9602 104.3 24.7386 105.187 24.7386C106.085 24.7386 106.849 24.9631 107.479 25.4119C108.11 25.8551 108.531 26.4574 108.741 27.2188H108.877C109.144 26.4688 109.627 25.8693 110.326 25.4205C111.031 24.9659 111.863 24.7386 112.823 24.7386C114.045 24.7386 115.036 25.1278 115.798 25.9062C116.565 26.679 116.948 27.7756 116.948 29.196V38H113.326V29.9119C113.326 29.1847 113.133 28.6392 112.746 28.2756C112.36 27.9119 111.877 27.7301 111.298 27.7301C110.638 27.7301 110.124 27.9403 109.755 28.3608C109.386 28.7756 109.201 29.3239 109.201 30.0057V38H105.681V29.8352C105.681 29.1932 105.496 28.6818 105.127 28.3011C104.763 27.9205 104.283 27.7301 103.687 27.7301C103.283 27.7301 102.92 27.8324 102.596 28.0369C102.278 28.2358 102.025 28.517 101.837 28.8807C101.65 29.2386 101.556 29.6591 101.556 30.142V38H97.9254ZM119.816 42.9091V24.9091H123.396V27.108H123.558C123.717 26.7557 123.947 26.3977 124.248 26.0341C124.555 25.6648 124.952 25.358 125.441 25.1136C125.935 24.8636 126.549 24.7386 127.282 24.7386C128.237 24.7386 129.117 24.9886 129.924 25.4886C130.731 25.983 131.376 26.7301 131.859 27.7301C132.342 28.7244 132.583 29.9716 132.583 31.4716C132.583 32.9318 132.347 34.1648 131.876 35.1705C131.41 36.1705 130.773 36.929 129.967 37.446C129.165 37.9574 128.268 38.2131 127.273 38.2131C126.569 38.2131 125.969 38.0966 125.475 37.8636C124.987 37.6307 124.586 37.3381 124.273 36.9858C123.961 36.6278 123.722 36.267 123.558 35.9034H123.447V42.9091H119.816ZM123.37 31.4545C123.37 32.233 123.478 32.9119 123.694 33.4915C123.91 34.071 124.222 34.5227 124.631 34.8466C125.04 35.1648 125.538 35.3239 126.123 35.3239C126.714 35.3239 127.214 35.1619 127.623 34.8381C128.032 34.5085 128.342 34.054 128.552 33.4744C128.768 32.8892 128.876 32.2159 128.876 31.4545C128.876 30.6989 128.771 30.0341 128.56 29.4602C128.35 28.8864 128.04 28.4375 127.631 28.1136C127.222 27.7898 126.719 27.6278 126.123 27.6278C125.532 27.6278 125.032 27.7841 124.623 28.0966C124.219 28.4091 123.91 28.8523 123.694 29.4261C123.478 30 123.37 30.6761 123.37 31.4545ZM138.634 20.5455V38H135.004V20.5455H138.634ZM145.276 38.2472C144.44 38.2472 143.696 38.1023 143.043 37.8125C142.389 37.517 141.872 37.0824 141.491 36.5085C141.116 35.929 140.929 35.2074 140.929 34.3438C140.929 33.6165 141.063 33.0057 141.33 32.5114C141.597 32.017 141.96 31.6193 142.42 31.3182C142.881 31.017 143.403 30.7898 143.989 30.6364C144.58 30.483 145.199 30.375 145.847 30.3125C146.608 30.233 147.222 30.1591 147.688 30.0909C148.153 30.017 148.491 29.9091 148.702 29.767C148.912 29.625 149.017 29.4148 149.017 29.1364V29.0852C149.017 28.5455 148.847 28.1278 148.506 27.8324C148.17 27.5369 147.693 27.3892 147.074 27.3892C146.42 27.3892 145.901 27.5341 145.514 27.8239C145.128 28.108 144.872 28.4659 144.747 28.8977L141.389 28.625C141.56 27.8295 141.895 27.142 142.395 26.5625C142.895 25.9773 143.54 25.5284 144.33 25.2159C145.125 24.8977 146.045 24.7386 147.091 24.7386C147.818 24.7386 148.514 24.8239 149.179 24.9943C149.849 25.1648 150.443 25.429 150.96 25.7869C151.483 26.1449 151.895 26.6051 152.196 27.1676C152.497 27.7244 152.648 28.392 152.648 29.1705V38H149.205V36.1847H149.102C148.892 36.5938 148.611 36.9545 148.259 37.267C147.906 37.5739 147.483 37.8153 146.989 37.9915C146.494 38.1619 145.923 38.2472 145.276 38.2472ZM146.315 35.7415C146.849 35.7415 147.321 35.6364 147.73 35.4261C148.139 35.2102 148.46 34.9205 148.693 34.5568C148.926 34.1932 149.043 33.7812 149.043 33.321V31.9318C148.929 32.0057 148.773 32.0739 148.574 32.1364C148.381 32.1932 148.162 32.2472 147.918 32.2983C147.673 32.3437 147.429 32.3864 147.185 32.4261C146.94 32.4602 146.719 32.4915 146.52 32.5199C146.094 32.5824 145.722 32.6818 145.403 32.8182C145.085 32.9545 144.838 33.1392 144.662 33.3722C144.486 33.5994 144.398 33.8835 144.398 34.2244C144.398 34.7188 144.577 35.0966 144.935 35.358C145.298 35.6136 145.759 35.7415 146.315 35.7415ZM162.428 24.9091V27.6364H154.544V24.9091H162.428ZM156.334 21.7727H159.964V33.9773C159.964 34.3125 160.016 34.5739 160.118 34.7614C160.22 34.9432 160.362 35.071 160.544 35.1449C160.732 35.2187 160.947 35.2557 161.192 35.2557C161.362 35.2557 161.533 35.2415 161.703 35.2131C161.874 35.179 162.004 35.1534 162.095 35.1364L162.666 37.8381C162.484 37.8949 162.229 37.9602 161.899 38.0341C161.57 38.1136 161.169 38.1619 160.697 38.179C159.822 38.2131 159.055 38.0966 158.396 37.8295C157.743 37.5625 157.234 37.1477 156.871 36.5852C156.507 36.0227 156.328 35.3125 156.334 34.4545V21.7727ZM170.618 38.2557C169.271 38.2557 168.112 37.983 167.141 37.4375C166.175 36.8864 165.43 36.108 164.908 35.1023C164.385 34.0909 164.124 32.8949 164.124 31.5142C164.124 30.1676 164.385 28.9858 164.908 27.9688C165.43 26.9517 166.166 26.1591 167.115 25.5909C168.07 25.0227 169.189 24.7386 170.473 24.7386C171.337 24.7386 172.141 24.8778 172.885 25.1562C173.635 25.429 174.288 25.8409 174.845 26.392C175.408 26.9432 175.845 27.6364 176.158 28.4716C176.47 29.3011 176.626 30.2727 176.626 31.3864V32.3835H165.572V30.1335H173.209C173.209 29.6108 173.095 29.1477 172.868 28.7443C172.641 28.3409 172.325 28.0256 171.922 27.7983C171.524 27.5653 171.061 27.4489 170.533 27.4489C169.982 27.4489 169.493 27.5767 169.067 27.8324C168.646 28.0824 168.317 28.4205 168.078 28.8466C167.839 29.267 167.717 29.7358 167.712 30.2528V32.392C167.712 33.0398 167.831 33.5994 168.07 34.071C168.314 34.5426 168.658 34.9062 169.101 35.1619C169.544 35.4176 170.07 35.5455 170.678 35.5455C171.081 35.5455 171.45 35.4886 171.786 35.375C172.121 35.2614 172.408 35.0909 172.646 34.8636C172.885 34.6364 173.067 34.358 173.192 34.0284L176.55 34.25C176.379 35.0568 176.03 35.7614 175.501 36.3636C174.979 36.9602 174.303 37.4261 173.473 37.7614C172.649 38.0909 171.697 38.2557 170.618 38.2557ZM199.218 20.5455V38H196.031L188.437 27.0142H188.309V38H184.619V20.5455H187.857L195.391 31.5227H195.545V20.5455H199.218ZM208.165 38.2557C206.818 38.2557 205.659 37.983 204.688 37.4375C203.722 36.8864 202.977 36.108 202.455 35.1023C201.932 34.0909 201.67 32.8949 201.67 31.5142C201.67 30.1676 201.932 28.9858 202.455 27.9688C202.977 26.9517 203.713 26.1591 204.662 25.5909C205.616 25.0227 206.736 24.7386 208.02 24.7386C208.884 24.7386 209.688 24.8778 210.432 25.1562C211.182 25.429 211.835 25.8409 212.392 26.392C212.955 26.9432 213.392 27.6364 213.705 28.4716C214.017 29.3011 214.173 30.2727 214.173 31.3864V32.3835H203.119V30.1335H210.756C210.756 29.6108 210.642 29.1477 210.415 28.7443C210.188 28.3409 209.872 28.0256 209.469 27.7983C209.071 27.5653 208.608 27.4489 208.08 27.4489C207.528 27.4489 207.04 27.5767 206.614 27.8324C206.193 28.0824 205.864 28.4205 205.625 28.8466C205.386 29.267 205.264 29.7358 205.259 30.2528V32.392C205.259 33.0398 205.378 33.5994 205.616 34.071C205.861 34.5426 206.205 34.9062 206.648 35.1619C207.091 35.4176 207.616 35.5455 208.224 35.5455C208.628 35.5455 208.997 35.4886 209.332 35.375C209.668 35.2614 209.955 35.0909 210.193 34.8636C210.432 34.6364 210.614 34.358 210.739 34.0284L214.097 34.25C213.926 35.0568 213.577 35.7614 213.048 36.3636C212.526 36.9602 211.849 37.4261 211.02 37.7614C210.196 38.0909 209.244 38.2557 208.165 38.2557ZM219.342 24.9091L221.746 29.4858L224.209 24.9091H227.933L224.141 31.4545L228.036 38H224.328L221.746 33.4744L219.206 38H215.456L219.342 31.4545L215.592 24.9091H219.342ZM237.053 24.9091V27.6364H229.169V24.9091H237.053ZM230.959 21.7727H234.589V33.9773C234.589 34.3125 234.641 34.5739 234.743 34.7614C234.845 34.9432 234.987 35.071 235.169 35.1449C235.357 35.2187 235.572 35.2557 235.817 35.2557C235.987 35.2557 236.158 35.2415 236.328 35.2131C236.499 35.179 236.629 35.1534 236.72 35.1364L237.291 37.8381C237.109 37.8949 236.854 37.9602 236.524 38.0341C236.195 38.1136 235.794 38.1619 235.322 38.179C234.447 38.2131 233.68 38.0966 233.021 37.8295C232.368 37.5625 231.859 37.1477 231.496 36.5852C231.132 36.0227 230.953 35.3125 230.959 34.4545V21.7727ZM246.474 20.5455H250.122V32.7159C250.122 33.8409 249.869 34.8182 249.364 35.6477C248.864 36.4773 248.168 37.1165 247.276 37.5653C246.384 38.0142 245.347 38.2386 244.165 38.2386C243.114 38.2386 242.159 38.054 241.301 37.6847C240.449 37.3097 239.773 36.7415 239.273 35.9801C238.773 35.2131 238.526 34.25 238.531 33.0909H242.205C242.216 33.5511 242.31 33.946 242.486 34.2756C242.668 34.5994 242.915 34.8494 243.227 35.0256C243.545 35.196 243.92 35.2812 244.352 35.2812C244.807 35.2812 245.19 35.1847 245.503 34.9915C245.821 34.7926 246.063 34.5028 246.227 34.1222C246.392 33.7415 246.474 33.2727 246.474 32.7159V20.5455ZM262.642 25.5653C262.574 24.8778 262.281 24.3437 261.764 23.9631C261.247 23.5824 260.545 23.392 259.659 23.392C259.057 23.392 258.548 23.4773 258.134 23.6477C257.719 23.8125 257.401 24.0426 257.179 24.3381C256.963 24.6335 256.855 24.9688 256.855 25.3438C256.844 25.6562 256.909 25.929 257.051 26.1619C257.199 26.3949 257.401 26.5966 257.656 26.767C257.912 26.9318 258.207 27.0767 258.543 27.2017C258.878 27.321 259.236 27.4233 259.616 27.5085L261.185 27.8835C261.946 28.054 262.645 28.2812 263.281 28.5653C263.918 28.8494 264.469 29.1989 264.935 29.6136C265.401 30.0284 265.761 30.517 266.017 31.0795C266.278 31.642 266.412 32.2869 266.418 33.0142C266.412 34.0824 266.139 35.0085 265.599 35.7926C265.065 36.571 264.293 37.1761 263.281 37.608C262.276 38.0341 261.063 38.2472 259.642 38.2472C258.233 38.2472 257.006 38.0312 255.96 37.5994C254.92 37.1676 254.108 36.5284 253.523 35.6818C252.943 34.8295 252.639 33.7756 252.611 32.5199H256.182C256.222 33.1051 256.389 33.5937 256.685 33.9858C256.986 34.3722 257.386 34.6648 257.886 34.8636C258.392 35.0568 258.963 35.1534 259.599 35.1534C260.224 35.1534 260.767 35.0625 261.227 34.8807C261.693 34.6989 262.054 34.446 262.31 34.1222C262.565 33.7983 262.693 33.4261 262.693 33.0057C262.693 32.6136 262.577 32.2841 262.344 32.017C262.116 31.75 261.781 31.5227 261.338 31.3352C260.901 31.1477 260.364 30.9773 259.727 30.8239L257.827 30.3466C256.355 29.9886 255.193 29.429 254.341 28.6676C253.489 27.9062 253.065 26.8807 253.071 25.5909C253.065 24.5341 253.347 23.6108 253.915 22.821C254.489 22.0312 255.276 21.4148 256.276 20.9716C257.276 20.5284 258.412 20.3068 259.685 20.3068C260.98 20.3068 262.111 20.5284 263.077 20.9716C264.048 21.4148 264.804 22.0312 265.344 22.821C265.884 23.6108 266.162 24.5256 266.179 25.5653H262.642Z" fill="white"/>
</g>
<defs>
<linearGradient id="paint0_linear_1_3" x1="25.5" y1="76" x2="27.3826" y2="19.4919" gradientUnits="userSpaceOnUse">
<stop stop-color="#00875F"/>
<stop offset="1" stop-color="#0FCC94"/>
</linearGradient>
<clipPath id="clip0_1_3">
<rect width="272" height="56" fill="white"/>
</clipPath>
</defs>
</svg>
